<svg width="559" height="372" viewBox="0 0 559 372" xmlns="http://www.w3.org/2000/svg">
  <g fill="none" fill-rule="evenodd">
    <path d="M63.43 317a34.18 34.18 0 0 1 10.25-5.77 41.62 41.62 0 0 1 14.16-2.5c4.97 0 9.18.62 12.62 1.84a18.8 18.8 0 0 1 8.35 5.7c2.14 2.56 3.7 5.8 4.68 9.7a57.42 57.42 0 0 1 1.48 13.93v29.75H97.2v-6.28h-.36a14.62 14.62 0 0 1-6.81 5.68 24.22 24.22 0 0 1-9.9 2.02c-2.36 0-4.81-.32-7.34-.95a21.52 21.52 0 0 1-6.93-3.08 16.69 16.69 0 0 1-5.16-5.69c-1.34-2.37-2.01-5.3-2.01-8.77 0-4.26 1.16-7.7 3.5-10.3a22.94 22.94 0 0 1 9-6.05 47.71 47.71 0 0 1 12.26-2.85c4.5-.47 8.9-.7 13.16-.7v-.95c0-2.93-1.03-5.08-3.08-6.46-2.06-1.38-4.59-2.08-7.59-2.08-2.76 0-5.43.6-8 1.78a25.53 25.53 0 0 0-6.57 4.27l-8.62-9.25a22.4 22.4 0 0 1-8.97 12.09 32.43 32.43 0 0 1-10.67 4.5 54.67 54.67 0 0 1-12.56 1.43H20.48v31.64H.22v-83.9h30.8c4.59 0 8.87.45 12.86 1.36 4 .9 7.47 2.37 10.43 4.39a21.24 21.24 0 0 1 7 7.93c1.7 3.28 2.54 7.33 2.54 12.15 0 1.93-.14 3.74-.42 5.43zm-19.84-5.3c0-1.98-.4-3.6-1.19-4.86a8.26 8.26 0 0 0-3.2-2.96 13.73 13.73 0 0 0-4.56-1.42c-1.7-.24-3.46-.36-5.27-.36h-8.9v19.79h8.54c1.9 0 3.71-.16 5.45-.47 1.74-.32 3.3-.87 4.68-1.66a8.89 8.89 0 0 0 3.26-3.14 9.35 9.35 0 0 0 1.19-4.92zm53.6 32.23h-2.48c-2.13 0-4.28.1-6.46.3-2.17.2-4.1.57-5.8 1.12-1.7.56-3.1 1.37-4.21 2.43a5.58 5.58 0 0 0-1.66 4.2c0 1.12.26 2.06.77 2.85a5.97 5.97 0 0 0 1.96 1.9c.79.47 1.7.8 2.72 1 1.03.2 2.02.3 2.96.3 3.95 0 6.98-1.08 9.07-3.26 2.1-2.17 3.14-5.11 3.14-8.82v-2.02zm63.93 25.72V337.4c0-1.66-.14-3.24-.41-4.74-.28-1.5-.73-2.82-1.37-3.97a7.07 7.07 0 0 0-2.66-2.72 8.45 8.45 0 0 0-4.33-1c-1.74 0-3.26.33-4.56 1a9.23 9.23 0 0 0-3.26 2.78 12.65 12.65 0 0 0-1.95 4.1 17.6 17.6 0 0 0-.66 4.8v31.99h-19.55v-59.02h18.84v8.18h.24c.71-1.26 1.64-2.5 2.78-3.73a16.72 16.72 0 0 1 4.03-3.14 25.07 25.07 0 0 1 5.04-2.14c1.82-.55 3.75-.83 5.8-.83 3.96 0 7.31.71 10.08 2.14 2.76 1.42 5 3.26 6.7 5.5a21.7 21.7 0 0 1 3.67 7.77 35.14 35.14 0 0 1 1.12 8.77v36.5h-19.55zm71.86 0v-7.7h-.23c-1.9 3-4.6 5.3-8.12 6.93a26.45 26.45 0 0 1-11.2 2.42 26.14 26.14 0 0 1-20.68-9.53 30.47 30.47 0 0 1-5.5-10.02 37.22 37.22 0 0 1 .05-23.64 30.75 30.75 0 0 1 5.57-9.9 26.38 26.38 0 0 1 8.77-6.75 26.23 26.23 0 0 1 11.55-2.49c4.35 0 8.02.83 11.02 2.5 3 1.65 5.34 3.47 7 5.44h.23v-36.85h19.44v89.59h-17.9zm-.7-29.63c0-1.9-.34-3.75-1.02-5.57a15.74 15.74 0 0 0-2.84-4.86 14.14 14.14 0 0 0-4.44-3.43 13.07 13.07 0 0 0-5.93-1.3 13.35 13.35 0 0 0-10.43 4.67 13.92 13.92 0 0 0-2.66 4.8 17.86 17.86 0 0 0 0 11.2c.59 1.86 1.48 3.5 2.66 4.92a13.47 13.47 0 0 0 4.39 3.44c1.74.86 3.75 1.3 6.04 1.3 2.21 0 4.19-.44 5.93-1.3a14.14 14.14 0 0 0 4.44-3.44 15.74 15.74 0 0 0 2.84-4.86c.68-1.82 1.01-3.67 1.01-5.57zm61.78 3.91h-2.49c-2.13 0-4.28.1-6.46.3-2.17.2-4.1.57-5.8 1.12-1.7.56-3.1 1.37-4.2 2.43a5.58 5.58 0 0 0-1.67 4.2c0 1.12.26 2.06.77 2.85a5.97 5.97 0 0 0 1.96 1.9c.79.47 1.7.8 2.72 1 1.03.2 2.02.3 2.97.3 3.95 0 6.97-1.08 9.06-3.26 2.1-2.17 3.14-5.11 3.14-8.82v-2.02zM258.4 318.7a34.03 34.03 0 0 1 12.15-7.46 41.62 41.62 0 0 1 14.16-2.5c4.98 0 9.18.62 12.62 1.84a18.8 18.8 0 0 1 8.35 5.7c2.14 2.56 3.7 5.8 4.68 9.7a57.42 57.42 0 0 1 1.49 13.93v29.75h-17.78v-6.28h-.35a14.62 14.62 0 0 1-6.82 5.68 24.22 24.22 0 0 1-9.9 2.02c-2.36 0-4.81-.32-7.34-.95a21.52 21.52 0 0 1-6.93-3.08 16.69 16.69 0 0 1-5.16-5.69c-1.34-2.37-2.01-5.3-2.01-8.77 0-4.26 1.16-7.7 3.5-10.3a22.94 22.94 0 0 1 9-6.05 47.71 47.71 0 0 1 12.26-2.85c4.5-.47 8.9-.7 13.16-.7v-.95c0-2.93-1.03-5.08-3.08-6.46-2.06-1.38-4.58-2.08-7.59-2.08-2.76 0-5.43.6-8 1.78a25.53 25.53 0 0 0-6.57 4.27l-9.84-10.55zm62.5-32.94h19.8l38.98 62.8h.23v-62.8h14.94v83.9h-18.96l-39.82-64.82h-.24v64.82H320.9v-83.9zm81.34 55.22c0-4.5.81-8.6 2.43-12.27a28.68 28.68 0 0 1 6.58-9.42 29 29 0 0 1 9.83-6.04 34.14 34.14 0 0 1 12.1-2.13c4.26 0 8.29.7 12.08 2.13a29 29 0 0 1 9.83 6.04 28.68 28.68 0 0 1 6.58 9.42 30.08 30.08 0 0 1 2.43 12.27c0 4.5-.8 8.61-2.43 12.32a29.18 29.18 0 0 1-6.58 9.54 30.04 30.04 0 0 1-9.83 6.22 32.54 32.54 0 0 1-12.09 2.25c-4.26 0-8.3-.75-12.09-2.25a30.04 30.04 0 0 1-9.83-6.22 29.18 29.18 0 0 1-6.58-9.54 30.5 30.5 0 0 1-2.43-12.32zm14.46 0c0 2.21.34 4.42 1 6.63a18.27 18.27 0 0 0 3.03 5.93 15.82 15.82 0 0 0 5.1 4.27c2.05 1.1 4.5 1.65 7.34 1.65 2.85 0 5.3-.55 7.35-1.65a15.82 15.82 0 0 0 5.1-4.27 18.27 18.27 0 0 0 3.02-5.93 22.16 22.16 0 0 0 0-13.21 18.38 18.38 0 0 0-3.03-5.86 15.18 15.18 0 0 0-5.1-4.21 15.76 15.76 0 0 0-7.34-1.6c-2.84 0-5.3.53-7.35 1.6a15.18 15.18 0 0 0-5.1 4.2 18.38 18.38 0 0 0-3.01 5.87c-.67 2.17-1.01 4.37-1.01 6.58zm45.91-16.83v-11.37h9.95v-16.48h13.99v16.48h14.22v11.37h-14.22v26.43c0 2.53.45 4.62 1.36 6.28.9 1.66 2.94 2.49 6.1 2.49.95 0 1.98-.1 3.08-.3 1.11-.2 2.1-.5 2.97-.89l.47 11.14c-1.26.47-2.76.85-4.5 1.13-1.74.27-3.4.41-4.98.41-3.8 0-6.87-.53-9.24-1.6a14.01 14.01 0 0 1-5.63-4.38 16.23 16.23 0 0 1-2.85-6.4c-.5-2.41-.77-5-.77-7.76v-26.55h-9.95zm81.46 11.38c0-1.82-.26-3.56-.77-5.22a11.93 11.93 0 0 0-2.43-4.38 11.86 11.86 0 0 0-4.2-3.02 14.7 14.7 0 0 0-5.99-1.13c-4.27 0-7.88 1.29-10.84 3.85a14.04 14.04 0 0 0-4.92 9.9h29.15zm14.22 6.4v1.9c0 .62-.04 1.26-.12 1.89h-43.25a14.08 14.08 0 0 0 5.21 10.01c1.5 1.23 3.2 2.2 5.1 2.9 1.9.72 3.87 1.07 5.92 1.07 3.56 0 6.56-.65 9.01-1.95 2.45-1.3 4.46-3.1 6.04-5.4l9.48 7.59c-5.6 7.58-13.74 11.37-24.4 11.37-4.43 0-8.5-.69-12.21-2.07a28.8 28.8 0 0 1-9.66-5.86 26.44 26.44 0 0 1-6.4-9.3 32.06 32.06 0 0 1-2.31-12.5c0-4.6.77-8.76 2.31-12.51a28.46 28.46 0 0 1 6.34-9.6 28.36 28.36 0 0 1 9.54-6.16 31.92 31.92 0 0 1 11.9-2.2c3.96 0 7.61.66 10.97 1.96a23.77 23.77 0 0 1 8.7 5.8 26.93 26.93 0 0 1 5.76 9.6c1.38 3.84 2.07 8.32 2.07 13.46z" fill="#949494"/>
    <path d="M313.66 142.07a6.08 6.08 0 1 0 2.84-9.9 15.22 15.22 0 1 1-2.83 9.9zm-108.59 0a6.08 6.08 0 1 0 2.83-9.9 15.22 15.22 0 1 1-2.83 9.9zM175.67.08c21.6 0 41.96 13.48 47.22 30.42 15.85-4.6 32.92-6.58 50.67-6.58 17.9 0 35.08 2.02 51.03 6.68C329.8 13.62 350.19.08 371.84.08c27.77 0 52.36 15.07 52.36 38.14 0 15.56-9.64 33.17-22.68 42.97C415.77 99.84 424 121.86 424 145.55c0 33.14-16.24 59.45-45.57 76.95-26.57 15.86-63.2 24.53-104.88 24.53-41.68 0-78.3-8.67-104.87-24.53-29.34-17.5-45.57-43.8-45.57-76.95 0-23.76 8.3-45.86 22.63-64.54-12.91-9.85-22.44-27.32-22.44-42.79 0-23.07 24.6-38.14 52.36-38.14zm97.9 236.8c77.37 0 140.09-29.5 140.09-91.52 0-62.03-62.72-112.32-140.1-112.32-77.37 0-140.1 50.29-140.1 112.32 0 62.03 62.73 91.52 140.1 91.52zm2.21-37.17v10.07c.08 5.64 3.29 9.73 10.23 9.73 6.68 0 10.42-4.53 10.88-4.83 1.55-1 3.18-.35 3.18 1.46 0 .8-.8 2.49-2.38 3.86-3.76 3.24-7.55 4.1-12.3 4.1-6.3 0-9.97-2.41-12.03-5.53-2.05 3.12-5.72 5.53-12.02 5.53-4.75 0-8.54-.86-12.3-4.1-1.59-1.37-2.38-3.06-2.38-3.86 0-1.8 1.63-2.47 3.18-1.46.46.3 4.2 4.83 10.88 4.83 6.94 0 10.15-4.09 10.23-9.73v-10c-8.9-.78-18.7-6.23-18.7-12.84 0-7.14 9.31-10.4 20.8-10.4 11.5 0 20.82 3.26 20.82 10.4 0 6.46-9.37 11.81-18.09 12.77zm-64.66-12.06c-20.46 0-35.52-15.79-35.52-35.95 0-27.43 31.4-50.22 51.87-50.22s33.43 27.95 24.93 50.22-20.81 35.95-41.28 35.95zm8.13-24.8a23.34 23.34 0 1 0-23.35-23.32 23.34 23.34 0 0 0 23.35 23.32zm5.58-13.67a3.06 3.06 0 1 0 0-6.12 3.06 3.06 0 0 0 0 6.12zm111.43 38.5c-20.46 0-32.77-13.7-41.27-35.96-8.5-22.28 4.46-50.22 24.93-50.22 20.46 0 51.87 22.8 51.87 50.22 0 20.16-15.06 35.95-35.53 35.95zm-8.39-24.83a23.34 23.34 0 1 0-23.34-23.32 23.34 23.34 0 0 0 23.34 23.32zm5.55-13.67a3.06 3.06 0 1 0 0-6.12 3.06 3.06 0 0 0 0 6.12z" fill="#D2D2D2"/>
  </g>
</svg>
